<svg xmlns="http://www.w3.org/2000/svg" width="42" height="42" fill="none"><path stroke="#000" stroke-width="2" d="M36.13 8.794c-1.5-.181-1.244.145-3.915 2.502L17.504 25.47c.073 2.755 1.5 1.631 2.561 3.154-.073 2.537-.988 2.646-4.354 3.77-2.745 1.378-1.171 4.314-2.745 6.598-4.281 5.8-10.54-2.43-11.6-6.236-2.16-8.954 5.855-7.286 8.05-8.736 1.794-2.647 2.525-7.867 6.624-6.453 0 1.015-1.28 3.951 1.464 3.951L32.947 7.562c.914-.327 1.28-2.03 1.134-2.538l3.513-2.248C37.411 1.834 38.911 1 39.68 1c.33.024.952.189.805.653C39.45 3.446 37.79 6.51 36.83 7.972l-.306.441c-.185.25-.322.39-.393.381Z"/></svg>